<svg fill="none" height="22" viewBox="0 0 22 22" width="22" xmlns="http://www.w3.org/2000/svg"><path clip-rule="evenodd" d="m5.7619 1.0238c-2.61678 0-4.7381 2.12132-4.7381 4.7381v10.4762c0 2.6168 2.12132 4.7381 4.7381 4.7381h10.4762c2.6168 0 4.7381-2.1213 4.7381-4.7381v-10.4762c0-2.61678-2.1213-4.7381-4.7381-4.7381zm-5.7380963 4.7381c0-3.16906 2.5690363-5.7380963 5.7380963-5.7380963h10.4762c3.1691 0 5.7381 2.5690363 5.7381 5.7380963v10.4762c0 3.1691-2.569 5.7381-5.7381 5.7381h-10.4762c-3.16906 0-5.7380963-2.569-5.7380963-5.7381zm11.5627963 1.54201c-.7678-.11386-1.552.0173-2.24101.37481s-1.24774.92318-1.59673 1.61655c-.349.69337-.47047 1.47913-.34715 2.24553s.48516 1.4743 1.03405 2.0232c.54888.5489 1.25687.9108 2.02324 1.0341.7664.1233 1.5522.0018 2.2455-.3472.6934-.349 1.2591-.9077 1.6166-1.5967s.4886-1.4732.3748-2.2411c-.1162-.78319-.4811-1.5083-1.041-2.06819-.5599-.55988-1.285-.92485-2.0683-1.041zm-2.70158-.51281c.87571-.45439 1.87238-.62108 2.84828-.47637.9955.14762 1.9171.61148 2.6287 1.32307.7116.7116 1.1754 1.63319 1.3231 2.6287.1447.9759-.022 1.9726-.4764 2.8483s-1.1733 1.5858-2.0546 2.0294c-.8812.4435-1.8799.5979-2.854.4412-.97401-.1568-1.87383-.6166-2.57145-1.3143-.69762-.6976-1.1575-1.5974-1.31424-2.5715-.15674-.974-.00235-1.97267.44121-2.85392s1.15369-1.60019 2.0294-2.05458zm7.87688-2.05301c-.2761 0-.5.22386-.5.5s.2239.5.5.5h.01c.2761 0 .5-.22386.5-.5s-.2239-.5-.5-.5z" fill="#fff" fill-rule="evenodd"/></svg>