<svg fill="none" height="22" viewBox="0 0 31 22" width="31" xmlns="http://www.w3.org/2000/svg"><path clip-rule="evenodd" d="m12.3821 15.0639v-8.81858c3.0879 1.47311 5.4795 2.89616 8.308 4.43038-2.3329 1.3117-5.2201 2.7834-8.308 4.3882zm17.209-13.20445c-.5327-.71148-1.4405-1.265311-2.4071-1.448665-2.8409-.546935-20.56397-.548491-23.40331 0-.77507.147306-1.46524.503365-2.05812 1.056575-2.498132 2.35069-1.71533742 14.95674-1.113192 16.99874.253208.8839.580542 1.5213.992782 1.9397.53112.5532 1.25831.9341 2.09359 1.1049 2.3391.4906 14.38975.7648 23.43885.0737.8337-.1473 1.5717-.5405 2.1538-1.1172 2.3098-2.3413 2.1523-15.65528.3027-18.60775z" fill="#fff" fill-rule="evenodd"/></svg>