<svg fill="none" height="47" viewBox="0 0 71 47" width="71" xmlns="http://www.w3.org/2000/svg" xmlns:xlink="http://www.w3.org/1999/xlink"><clipPath id="a"><path d="m0 0h71v47h-71z"/></clipPath><g clip-path="url(#a)"><path d="m71 0h-71v47h71z" fill="#039"/><g fill="#fc0"><path d="m35.5 5.22217-.8126 2.48331 1.2505.40344z"/><path d="m35.5 5.22217.8126 2.48331-1.2505.40344z"/><path d="m37.9987 7.03076-2.6275-.00436.0023 1.30119z"/><path d="m38.0009 7.02856-2.1255 1.53257-.7748-1.05842z"/><path d="m37.0456 9.9469-.8143-2.48454-1.2488.40221z"/><path d="m37.0469 9.94568-2.1287-1.53614.7716-1.05485z"/><path d="m33.0013 7.03076 2.6274-.00436-.0022 1.30119z"/><path d="m32.9991 7.02856 2.1254 1.53257.7748-1.05842z"/><path d="m33.9543 9.9469.8144-2.48454 1.2487.40221z"/><path d="m33.9531 9.94568 2.1286-1.53614-.7716-1.05485z"/><path d="m35.5 36.5555-.8126 2.4834 1.2505.4034z"/><path d="m35.5 36.5555.8126 2.4834-1.2505.4034z"/><path d="m37.9987 38.3641-2.6275-.0043.0023 1.3012z"/><path d="m38.0009 38.3619-2.1255 1.5326-.7748-1.0584z"/><path d="m37.0456 41.2803-.8143-2.4846-1.2488.4022z"/><path d="m37.0469 41.2791-2.1287-1.5362.7716-1.0548z"/><path d="m33.0013 38.3641 2.6274-.0043-.0022 1.3012z"/><path d="m32.9991 38.3619 2.1254 1.5326.7748-1.0584z"/><path d="m33.9543 41.2803.8144-2.4846 1.2487.4022z"/><path d="m33.9531 41.2791 2.1286-1.5362-.7716-1.0548z"/><path d="m19.7222 20.8889-.8126 2.4833 1.2505.4035z"/><path d="m19.7222 20.8889.8126 2.4833-1.2504.4035z"/><path d="m22.2209 22.6975-2.6274-.0044.0022 1.3012z"/><path d="m22.2231 22.6953-2.1254 1.5326-.7749-1.0584z"/><path d="m21.2678 25.6136-.8143-2.4845-1.2487.4022z"/><path d="m21.2691 25.6124-2.1286-1.5361.7715-1.0549z"/><path d="m17.2235 22.6975 2.6274-.0044-.0022 1.3012z"/><path d="m17.2213 22.6953 2.1254 1.5326.7749-1.0584z"/><path d="m18.1766 25.6136.8143-2.4845 1.2487.4022z"/><path d="m18.1753 25.6124 2.1286-1.5361-.7715-1.0549z"/><path d="m26.0641 12.0447 2.1287-1.5362-.7715-1.05481z"/><path d="m26.0654 12.046.8145-2.48458 1.2486.40215z"/><path d="m25.1101 9.12646 2.1263 1.53354.774-1.05737z"/><path d="m25.1113 9.12769 2.6285-.00238-.0012 1.30319z"/><path d="m27.6129 7.32104-.8145 2.48461 1.2487.40215z"/><path d="m27.6129 7.32104.8107 2.48203-1.2523.40473z"/><path d="m29.1556 12.0447-2.1263-1.5335.774-1.05751z"/><path d="m29.1567 12.0435-.8109-2.4822-1.2521.4046z"/><path d="m30.112 9.12451-2.1283 1.53579-.7719-1.0553z"/><path d="m30.112 9.12537-2.6287.00191-.0009 1.30362z"/><path d="m23.3817 17.7803-.8145-2.4846-1.2486.4021z"/><path d="m23.383 17.7791-2.1287-1.5363.7715-1.0547z"/><path d="m20.2915 17.7791 2.1262-1.5335-.774-1.0575z"/><path d="m20.2903 17.7778.811-2.4821 1.2521.4046z"/><path d="m19.3351 14.8589 2.1283 1.5357.7719-1.0552z"/><path d="m19.3351 14.8597 2.6286.002.001 1.3036z"/><path d="m24.337 14.8608-2.1264 1.5336-.7739-1.0574z"/><path d="m24.3358 14.8621-2.6285-.0024.0012 1.3032z"/><path d="m21.8342 13.0554.8145 2.4846-1.2487.4022z"/><path d="m21.8342 13.0554-.8107 2.482 1.2522.4048z"/><path d="m24.3338 30.5326-2.6265-.0061.0031 1.2994z"/><path d="m24.3369 30.5295-2.1246 1.5317-.7756-1.0593z"/><path d="m23.3817 33.449-.8173-2.4866-1.2458.4001z"/><path d="m23.3849 33.4458-2.1307-1.5384.7695-1.0526z"/><path d="m20.2924 33.4458 2.1253-1.5325-.7749-1.0585z"/><path d="m20.2903 33.4438.8097-2.4812 1.2534.4054z"/><path d="m21.832 28.7222.8166 2.4861-1.2465.4006z"/><path d="m21.832 28.7222-.8086 2.4805 1.2545.4062z"/><path d="m19.3351 30.5265 2.6284.0024.0012 1.3031z"/><path d="m19.3351 30.5253 2.1285 1.5359.7717-1.055z"/><path d="m30.1089 36.267-2.6265-.0062.0031 1.2994z"/><path d="m30.112 36.2639-2.1246 1.5317-.7756-1.0594z"/><path d="m29.1567 39.1833-.8172-2.4866-1.2458.4002z"/><path d="m29.16 39.1802-2.1307-1.5385.7695-1.0525z"/><path d="m26.0674 39.1802 2.1254-1.5325-.7749-1.0585z"/><path d="m26.0654 39.1782.8097-2.4813 1.2534.4055z"/><path d="m27.6071 34.4565.8166 2.4861-1.2465.4007z"/><path d="m27.6071 34.4565-.8086 2.4806 1.2545.4062z"/><path d="m25.1102 36.2609 2.6284.0023.0012 1.3032z"/><path d="m25.1102 36.2596 2.1285 1.536.7717-1.055z"/><path d="m51.2777 20.8889.8126 2.4833-1.2504.4035z"/><path d="m51.2777 20.8889-.8126 2.4833 1.2505.4035z"/><path d="m48.779 22.6975 2.6274-.0044-.0022 1.3012z"/><path d="m48.7768 22.6953 2.1254 1.5326.7748-1.0584z"/><path d="m49.7321 25.6136.8144-2.4845 1.2487.4022z"/><path d="m49.7308 25.6124 2.1287-1.5361-.7716-1.0549z"/><path d="m53.7765 22.6975-2.6275-.0044.0023 1.3012z"/><path d="m53.7787 22.6953-2.1254 1.5326-.7749-1.0584z"/><path d="m52.8234 25.6136-.8143-2.4845-1.2487.4022z"/><path d="m52.8246 25.6124-2.1286-1.5361.7716-1.0549z"/><path d="m44.9359 12.0447-2.1288-1.5362.7716-1.05481z"/><path d="m44.9345 12.046-.8144-2.48458-1.2487.40215z"/><path d="m45.8898 9.12646-2.1263 1.53354-.7739-1.05737z"/><path d="m45.8886 9.12769-2.6284-.00238.0012 1.30319z"/><path d="m43.3871 7.32104.8144 2.48461-1.2486.40215z"/><path d="m43.3871 7.32104-.8108 2.48203 1.2523.40473z"/><path d="m41.8444 12.0447 2.1262-1.5335-.774-1.05751z"/><path d="m41.8432 12.0435.8109-2.4822 1.2522.4046z"/><path d="m40.8879 9.12451 2.1283 1.53579.772-1.0553z"/><path d="m40.8879 9.12537 2.6287.00191.001 1.30362z"/><path d="m47.6183 17.7803.8144-2.4846 1.2486.4021z"/><path d="m47.6169 17.7791 2.1288-1.5363-.7716-1.0547z"/><path d="m50.7084 17.7791-2.1262-1.5335.774-1.0575z"/><path d="m50.7096 17.7778-.811-2.4821-1.2521.4046z"/><path d="m51.6649 14.8589-2.1283 1.5357-.772-1.0552z"/><path d="m51.6649 14.8597-2.6287.002-.001 1.3036z"/><path d="m46.663 14.8608 2.1264 1.5336.7739-1.0574z"/><path d="m46.6642 14.8621 2.6285-.0024-.0012 1.3032z"/><path d="m49.1657 13.0554-.8144 2.4846 1.2486.4022z"/><path d="m49.1657 13.0554.8108 2.482-1.2523.4048z"/><path d="m46.6661 30.5326 2.6265-.0061-.0031 1.2994z"/><path d="m46.663 30.5295 2.1246 1.5317.7757-1.0593z"/><path d="m47.6183 33.449.8173-2.4866 1.2457.4001z"/><path d="m47.615 33.4458 2.1307-1.5384-.7695-1.0526z"/><path d="m50.7076 33.4458-2.1254-1.5325.7749-1.0585z"/><path d="m50.7096 33.4438-.8097-2.4812-1.2533.4054z"/><path d="m49.1679 28.7222-.8166 2.4861 1.2465.4006z"/><path d="m49.1679 28.7222.8086 2.4805-1.2545.4062z"/><path d="m51.6648 30.5265-2.6284.0024-.0012 1.3031z"/><path d="m51.6648 30.5253-2.1285 1.5359-.7717-1.055z"/><path d="m40.8911 36.267 2.6265-.0062-.0032 1.2994z"/><path d="m40.8879 36.2639 2.1246 1.5317.7757-1.0594z"/><path d="m41.8432 39.1833.8173-2.4866 1.2458.4002z"/><path d="m41.8399 39.1802 2.1308-1.5385-.7695-1.0525z"/><path d="m44.9325 39.1802-2.1254-1.5325.7749-1.0585z"/><path d="m44.9345 39.1782-.8097-2.4813-1.2534.4055z"/><path d="m43.3928 34.4565-.8166 2.4861 1.2465.4007z"/><path d="m43.3928 34.4565.8086 2.4806-1.2544.4062z"/><path d="m45.8898 36.2609-2.6284.0023-.0013 1.3032z"/><path d="m45.8898 36.2596-2.1286 1.536-.7717-1.055z"/></g></g></svg>